HIERARCHY
ROOT Hips
{
    OFFSET 0.000000 0.000000 0.000000
    CHANNELS 6 Xposition Yposition Zposition Zrotation Xrotation Yrotation
    JOINT Spine
    {
        OFFSET 0.000003 8.467234 0.000016
        CHANNELS 3 Zrotation Xrotation Yrotation
        JOINT Spine1
        {
            OFFSET 0.000002 24.159163 0.000009
            CHANNELS 3 Zrotation Xrotation Yrotation
            JOINT Neck
            {
                OFFSET -0.000003 26.323065 -0.000017
                CHANNELS 3 Zrotation Xrotation Yrotation
                JOINT Head
                {
                    OFFSET -0.000001 16.024313 2.035161
                    CHANNELS 3 Zrotation Xrotation Yrotation
                    End Site
                    {
                        OFFSET 0.000000 20.351660 0.000000
                    }
                }
            }
            JOINT LeftShoulder
            {
                OFFSET 4.036570 20.304853 -0.371907
                CHANNELS 3 Zrotation Xrotation Yrotation
                JOINT LeftArm
                {
                    OFFSET 12.502551 -0.000005 0.000000
                    CHANNELS 3 Zrotation Xrotation Yrotation
                    JOINT LeftForeArm
                    {
                        OFFSET 31.806908 0.000003 0.000007
                        CHANNELS 3 Zrotation Xrotation Yrotation
                        JOINT LeftHand
                        {
                            OFFSET 24.843222 0.000000 0.000003
                            CHANNELS 3 Zrotation Xrotation Yrotation
                            JOINT LeftHandThumb1
                            {
                                OFFSET 2.126759 -2.416759 3.383464
                                CHANNELS 3 Zrotation Xrotation Yrotation
                                JOINT LeftHandThumb2
                                {
                                    OFFSET 3.212138 -0.000008 -0.000002
                                    CHANNELS 3 Zrotation Xrotation Yrotation
                                    JOINT LeftHandThumb3
                                    {
                                        OFFSET 2.745443 -0.000001 -0.000001
                                        CHANNELS 3 Zrotation Xrotation Yrotation
                                        End Site
                                        {
                                            OFFSET 2.793713 0.000000 0.000000
                                        }
                                    }
                                }
                            }
                            JOINT LeftHandIndex1
                            {
                                OFFSET 8.700325 -0.000002 3.383456
                                CHANNELS 3 Zrotation Xrotation Yrotation
                                JOINT LeftHandIndex2
                                {
                                    OFFSET 4.833524 0.000003 0.000005
                                    CHANNELS 3 Zrotation Xrotation Yrotation
                                    JOINT LeftHandIndex3
                                    {
                                        OFFSET 2.416751 -0.000003 -0.000004
                                        CHANNELS 3 Zrotation Xrotation Yrotation
                                        End Site
                                        {
                                            OFFSET 2.459254 0.000000 0.000000
                                        }
                                    }
                                }
                            }
                            JOINT LeftHandMiddle1
                            {
                                OFFSET 8.700338 0.000000 1.121374
                                CHANNELS 3 Zrotation Xrotation Yrotation
                                JOINT LeftHandMiddle2
                                {
                                    OFFSET 5.316879 0.000001 0.000002
                                    CHANNELS 3 Zrotation Xrotation Yrotation
                                    JOINT LeftHandMiddle3
                                    {
                                        OFFSET 2.900104 0.000001 0.000003
                                        CHANNELS 3 Zrotation Xrotation Yrotation
                                        End Site
                                        {
                                            OFFSET 2.951103 0.000000 0.000000
                                        }
                                    }
                                }
                            }
                            JOINT LeftHandRing1
                            {
                                OFFSET 8.216987 0.000000 -1.121377
                                CHANNELS 3 Zrotation Xrotation Yrotation
                                JOINT LeftHandRing2
                                {
                                    OFFSET 4.833524 0.000001 0.000004
                                    CHANNELS 3 Zrotation Xrotation Yrotation
                                    JOINT LeftHandRing3
                                    {
                                        OFFSET 2.416751 -0.000001 -0.000005
                                        CHANNELS 3 Zrotation Xrotation Yrotation
                                        End Site
                                        {
                                            OFFSET 2.459254 0.000000 0.000000
                                        }
                                    }
                                }
                            }
                            JOINT LeftHandPinky1
                            {
                                OFFSET 7.733622 0.000000 -3.383459
                                CHANNELS 3 Zrotation Xrotation Yrotation
                                JOINT LeftHandPinky2
                                {
                                    OFFSET 3.866815 0.000001 -0.000001
                                    CHANNELS 3 Zrotation Xrotation Yrotation
                                    JOINT LeftHandPinky3
                                    {
                                        OFFSET 1.933396 -0.000001 -0.000003
                                        CHANNELS 3 Zrotation Xrotation Yrotation
                                        End Site
                                        {
                                            OFFSET 1.967405 0.000000 0.000000
                                        }
                                    }
                                }
                            }
                        }
                    }
                }
            }
            JOINT RightShoulder
            {
                OFFSET -4.036568 20.304852 -0.371901
                CHANNELS 3 Zrotation Xrotation Yrotation
                JOINT RightArm
                {
                    OFFSET -12.502554 0.000003 -0.000011
                    CHANNELS 3 Zrotation Xrotation Yrotation
                    JOINT RightForeArm
                    {
                        OFFSET -31.806915 -0.000006 -0.000004
                        CHANNELS 3 Zrotation Xrotation Yrotation
                        JOINT RightHand
                        {
                            OFFSET -24.843237 0.000007 0.000003
                            CHANNELS 3 Zrotation Xrotation Yrotation
                            JOINT RightHandThumb1
                            {
                                OFFSET -2.126748 -2.416756 3.383465
                                CHANNELS 3 Zrotation Xrotation Yrotation
                                JOINT RightHandThumb2
                                {
                                    OFFSET -3.212134 0.000005 -0.000002
                                    CHANNELS 3 Zrotation Xrotation Yrotation
                                    JOINT RightHandThumb3
                                    {
                                        OFFSET -2.745437 0.000004 -0.000002
                                        CHANNELS 3 Zrotation Xrotation Yrotation
                                        End Site
                                        {
                                            OFFSET -2.793713 0.000000 0.000000
                                        }
                                    }
                                }
                            }
                            JOINT RightHandIndex1
                            {
                                OFFSET -8.700332 0.000004 3.383467
                                CHANNELS 3 Zrotation Xrotation Yrotation
                                JOINT RightHandIndex2
                                {
                                    OFFSET -4.833527 -0.000001 0.000001
                                    CHANNELS 3 Zrotation Xrotation Yrotation
                                    JOINT RightHandIndex3
                                    {
                                        OFFSET -2.416753 -0.000005 -0.000004
                                        CHANNELS 3 Zrotation Xrotation Yrotation
                                        End Site
                                        {
                                            OFFSET -2.459254 0.000000 0.000000
                                        }
                                    }
                                }
                            }
                            JOINT RightHandMiddle1
                            {
                                OFFSET -8.700326 -0.000007 1.121368
                                CHANNELS 3 Zrotation Xrotation Yrotation
                                JOINT RightHandMiddle2
                                {
                                    OFFSET -5.316862 -0.000001 -0.000003
                                    CHANNELS 3 Zrotation Xrotation Yrotation
                                    JOINT RightHandMiddle3
                                    {
                                        OFFSET -2.900109 0.000004 0.000001
                                        CHANNELS 3 Zrotation Xrotation Yrotation
                                        End Site
                                        {
                                            OFFSET -2.951103 0.000000 0.000000
                                        }
                                    }
                                }
                            }
                            JOINT RightHandRing1
                            {
                                OFFSET -8.216981 -0.000001 -1.121373
                                CHANNELS 3 Zrotation Xrotation Yrotation
                                JOINT RightHandRing2
                                {
                                    OFFSET -4.833527 -0.000001 0.000002
                                    CHANNELS 3 Zrotation Xrotation Yrotation
                                    JOINT RightHandRing3
                                    {
                                        OFFSET -2.416753 -0.000005 -0.000004
                                        CHANNELS 3 Zrotation Xrotation Yrotation
                                        End Site
                                        {
                                            OFFSET -2.459254 0.000000 0.000000
                                        }
                                    }
                                }
                            }
                            JOINT RightHandPinky1
                            {
                                OFFSET -7.733634 -0.000003 -3.383462
                                CHANNELS 3 Zrotation Xrotation Yrotation
                                JOINT RightHandPinky2
                                {
                                    OFFSET -3.866805 0.000002 -0.000002
                                    CHANNELS 3 Zrotation Xrotation Yrotation
                                    JOINT RightHandPinky3
                                    {
                                        OFFSET -1.933412 0.000003 0.000006
                                        CHANNELS 3 Zrotation Xrotation Yrotation
                                        End Site
                                        {
                                            OFFSET -1.967405 0.000000 0.000000
                                        }
                                    }
                                }
                            }
                        }
                    }
                }
            }
        }
    }
    JOINT LeftUpLeg
    {
        OFFSET 10.175829 0.000001 0.000011
        CHANNELS 3 Zrotation Xrotation Yrotation
        JOINT LeftLeg
        {
            OFFSET -0.000002 -42.882950 -0.000005
            CHANNELS 3 Zrotation Xrotation Yrotation
            JOINT LeftFoot
            {
                OFFSET 0.000000 -39.006771 -0.000007
                CHANNELS 3 Zrotation Xrotation Yrotation
                JOINT LeftToeBase
                {
                    OFFSET -0.000001 -6.614285 15.263753
                    CHANNELS 3 Zrotation Xrotation Yrotation
                    End Site
                    {
                        OFFSET 0.000000 0.000000 4.070332
                    }
                }
            }
        }
    }
    JOINT RightUpLeg
    {
        OFFSET -10.175829 -0.000001 -0.000011
        CHANNELS 3 Zrotation Xrotation Yrotation
        JOINT RightLeg
        {
            OFFSET 0.000000 -42.882946 0.000009
            CHANNELS 3 Zrotation Xrotation Yrotation
            JOINT RightFoot
            {
                OFFSET -0.000001 -39.006771 -0.000004
                CHANNELS 3 Zrotation Xrotation Yrotation
                JOINT RightToeBase
                {
                    OFFSET -0.000001 -6.614286 15.263737
                    CHANNELS 3 Zrotation Xrotation Yrotation
                    End Site
                    {
                        OFFSET 0.000000 0.000000 4.070332
                    }
                }
            }
        }
    }
}
MOTION
Frames:    4
Frame Time:    0.002778
28.007755    89.519348    210.537766    1.745309    -5.522098    -35.893936    0.610016    7.513095    0.063960    3.050030    7.502993    -0.254908    2.801876    12.439333    1.265422    2.801877    12.439332    1.265419    -0.648696    -4.609271    1.749868    -38.226593    -0.881651    -24.698235    -32.017159    12.814931    -127.905029    17.623676    4.879652    16.038498    47.448196    38.866428    -34.355019    -34.999989    -0.000003    -0.000003    -0.000000    0.000000    -0.000000    -0.000000    9.999994    -0.000000    -0.000000    0.000000    -0.000000    -0.000000    0.000000    -0.000000    -0.000000    0.000000    -0.000000    -0.000000    0.000000    -0.000000    -0.000000    0.000000    -0.000000    -0.000000    0.000000    -0.000000    -0.000000    0.000000    -0.000000    -0.000000    0.000000    -0.000000    0.000000    -10.000010    0.000003    -0.000000    0.000000    -0.000000    -0.000000    0.000000    -0.000000    -3.126228    -3.872252    2.779890    25.597984    7.473153    30.100176    -11.823614    -20.787308    59.074654    -16.031500    4.690261    -15.890879    -47.448208    38.866428    34.355030    35.000008    -0.000001    -0.000000    -0.000000    0.000000    -0.000000    0.000001    10.000000    0.000001    -0.000000    0.000000    -0.000000    -0.000000    0.000000    -0.000000    -0.000000    0.000000    -0.000000    -0.000000    0.000000    -0.000000    -0.000000    0.000000    -0.000000    -0.000000    0.000000    -0.000000    -0.000000    0.000000    -0.000000    -0.000000    0.000000    -0.000000    -0.000000    -10.000000    -0.000002    -0.000000    0.000000    -0.000000    -0.000000    0.000000    -0.000000    0.393354    -17.278345    4.381605    -0.000003    47.357361    0.000001    -9.729607    -30.384268    14.872407    -0.000001    0.869597    -0.000001    -22.051765    -30.778246    2.639624    0.000000    43.045834    -0.000005    11.681885    -3.667672    4.819993    0.000001    -1.364994    0.000005    
28.084091    89.660492    210.202057    1.956302    -5.301083    -35.582367    0.604307    7.491785    0.204719    3.021497    7.481898    -0.110294    2.903069    12.336052    1.132948    2.903075    12.336051    1.132945    -0.583801    -4.578740    1.709101    -38.076271    -1.255521    -24.686289    -32.001762    12.773790    -127.819260    17.636274    4.907488    16.107256    47.448219    38.866432    -34.355042    -35.000000    -0.000002    -0.000001    -0.000000    0.000000    -0.000000    -0.000003    10.000009    -0.000003    -0.000000    0.000000    -0.000000    -0.000000    0.000000    -0.000000    -0.000000    0.000000    -0.000000    -0.000000    0.000000    -0.000000    -0.000000    0.000000    -0.000000    -0.000000    0.000000    -0.000000    -0.000000    0.000000    -0.000000    -0.000000    0.000000    -0.000000    -0.000000    -9.999991    -0.000005    -0.000000    0.000000    -0.000000    -0.000000    0.000000    -0.000000    -3.304632    -4.044699    2.637424    25.760900    6.265019    30.034950    -11.265528    -20.726263    60.418617    -16.885916    4.968094    -15.925896    -47.448208    38.866428    34.355030    34.999996    0.000002    0.000005    -0.000000    0.000000    -0.000000    -0.000000    10.000000    0.000001    -0.000000    0.000000    -0.000000    -0.000000    0.000000    -0.000000    -0.000000    0.000000    -0.000000    -0.000000    0.000000    -0.000000    -0.000000    0.000000    -0.000000    -0.000000    0.000000    -0.000000    -0.000000    0.000000    -0.000000    -0.000000    0.000000    -0.000000    -0.000002    -10.000005    0.000002    -0.000000    0.000000    -0.000000    -0.000000    0.000000    -0.000000    0.494810    -17.525688    4.447147    0.000009    46.738976    -0.000017    -10.068683    -29.937265    14.543261    -0.000002    0.902080    -0.000003    -22.092999    -30.711580    2.650089    0.000005    43.430958    0.000000    11.220075    -3.741605    4.279707    0.000001    -1.307479    0.000006    
28.146919    89.798134    209.862991    2.170046    -5.070705    -35.250809    0.596805    7.464700    0.333425    2.983979    7.455092    0.023461    3.012849    12.230018    0.991012    3.012842    12.230012    0.991029    -0.512403    -4.532933    1.674357    -37.914829    -1.645844    -24.658218    -31.975521    12.711379    -127.731392    17.678976    4.947834    16.183664    47.448215    38.866432    -34.355038    -34.999996    0.000000    -0.000001    -0.000000    0.000000    -0.000000    -0.000003    10.000008    -0.000005    -0.000000    0.000000    -0.000000    -0.000000    0.000000    -0.000000    -0.000000    0.000000    -0.000000    -0.000000    0.000000    -0.000000    -0.000000    0.000000    -0.000000    -0.000000    0.000000    -0.000000    -0.000000    0.000000    -0.000000    -0.000000    0.000000    -0.000000    -0.000004    -9.999999    -0.000002    -0.000000    0.000000    -0.000000    -0.000000    0.000000    -0.000000    -3.485820    -4.209265    2.485231    25.998854    5.007911    29.928434    -10.747435    -20.580563    61.821888    -17.708689    5.205824    -15.860360    -47.448208    38.866428    34.355030    35.000004    -0.000002    -0.000002    -0.000000    0.000000    -0.000000    -0.000000    9.999999    0.000002    -0.000000    0.000000    -0.000000    -0.000000    0.000000    -0.000000    -0.000000    0.000000    -0.000000    -0.000000    0.000000    -0.000000    -0.000000    0.000000    -0.000000    -0.000000    0.000000    -0.000000    -0.000000    0.000000    -0.000000    -0.000000    0.000000    -0.000000    -0.000000    -9.999990    -0.000005    -0.000000    0.000000    -0.000000    -0.000000    0.000000    -0.000000    0.601210    -17.771952    4.511339    0.000001    46.107002    -0.000002    -10.429326    -29.507380    14.192737    0.000001    0.949440    0.000003    -22.122984    -30.632463    2.660335    -0.000000    43.809448    0.000002    10.835575    -3.793931    3.742973    -0.000001    -1.296162    -0.000000    
28.206787    89.935486    209.522827    2.380445    -4.835366    -34.893082    0.589863    7.435318    0.444765    2.949266    7.425968    0.139592    3.130837    12.137343    0.850269    3.130834    12.137336    0.850270    -0.470587    -4.484329    1.635178    -37.743954    -2.038203    -24.610571    -31.939159    12.638845    -127.647987    17.723650    4.987093    16.254152    47.448196    38.866432    -34.355019    -34.999992    -0.000002    -0.000003    -0.000000    0.000000    -0.000000    -0.000003    10.000002    0.000000    -0.000000    0.000000    -0.000000    -0.000000    0.000000    -0.000000    -0.000000    0.000000    -0.000000    -0.000000    0.000000    -0.000000    -0.000000    0.000000    -0.000000    -0.000000    0.000000    -0.000000    -0.000000    0.000000    -0.000000    -0.000000    0.000000    -0.000000    -0.000007    -10.000003    0.000003    -0.000000    0.000000    -0.000000    -0.000000    0.000000    -0.000000    -3.662526    -4.359430    2.341532    26.318581    3.751833    29.814217    -10.279109    -20.406609    63.255516    -18.516495    5.434986    -15.781910    -47.448212    38.866432    34.355030    35.000000    0.000001    0.000001    -0.000000    0.000000    -0.000000    -0.000000    10.000000    0.000001    -0.000000    0.000000    -0.000000    -0.000000    0.000000    -0.000000    -0.000000    0.000000    -0.000000    -0.000000    0.000000    -0.000000    -0.000000    0.000000    -0.000000    -0.000000    0.000000    -0.000000    -0.000000    0.000000    -0.000000    -0.000000    0.000000    -0.000000    0.000002    -9.999991    -0.000002    -0.000000    0.000000    -0.000000    -0.000000    0.000000    -0.000000    0.715809    -18.019424    4.577081    -0.000003    45.462570    0.000007    -10.822287    -29.064299    13.801915    0.000001    1.009916    0.000001    -22.147285    -30.543404    2.705079    0.000000    44.211227    0.000001    10.446364    -3.865676    3.260888    0.000001    -1.302882    0.000004    
